<svg width="1000" height="1000" viewBox="0 0 1000 1000" fill="none" xmlns="http://www.w3.org/2000/svg">
<path d="M870.922 649.552C850.915 698.843 821.548 743.08 783.69 780.938C745.79 818.838 701.552 848.206 652.262 868.212C604.669 887.514 554.384 897.289 502.816 897.289C497.721 897.289 492.626 897.206 487.573 896.958C439.359 895.798 392.347 886.064 347.736 867.963C298.446 847.957 254.208 818.59 216.308 780.69C178.45 742.831 149.083 698.594 129.076 649.303C109.774 601.67 99.999 551.426 99.999 499.857C99.999 448.289 109.774 398.045 129.076 350.453C149.083 301.162 178.45 256.925 216.308 219.025C254.208 181.166 298.446 151.799 347.736 131.793C395.329 112.491 445.614 102.716 497.182 102.716C502.277 102.716 507.372 102.798 512.425 103.047C560.639 104.207 607.652 113.94 652.262 132.041C701.552 152.048 745.79 181.415 783.69 219.273C821.548 257.173 850.915 301.411 870.922 350.701C890.224 398.294 899.999 448.579 899.999 500.106C899.999 551.633 890.224 601.918 870.922 649.552ZM667.297 335.666C624.385 292.754 568.757 270.138 512.425 267.86C511.597 267.86 510.768 267.777 509.94 267.777C502.484 267.363 495.029 267.28 487.573 267.611C431.241 269.89 375.613 292.505 332.701 335.417C288.753 379.323 264.564 437.726 264.564 499.857C264.564 561.989 288.753 620.433 332.701 664.339C375.571 707.251 431.241 729.867 487.573 732.145C488.401 732.186 489.188 732.228 489.975 732.228C494.242 732.476 498.508 732.6 502.816 732.6C506.005 732.6 509.194 732.518 512.425 732.393C568.757 730.115 624.427 707.499 667.297 664.588C711.245 620.682 735.434 562.237 735.434 500.106C735.434 437.975 711.245 379.572 667.297 335.666Z" fill="#0C1717"/>
<rect width="164.632" height="164.632" transform="matrix(1 0 0 -1 417.685 582.33)" fill="url(#paint0_linear_666_60)"/>
<defs>
<linearGradient id="paint0_linear_666_60" x1="0" y1="0" x2="183.835" y2="25.5614" gradientUnits="userSpaceOnUse">
<stop stop-color="#33CCCC"/>
<stop offset="1" stop-color="#009999"/>
</linearGradient>
</defs>
</svg>
