<svg width="1000" height="1000" viewBox="0 0 1000 1000" fill="none" xmlns="http://www.w3.org/2000/svg">
<path d="M500 50.571C252.198 50.571 50.571 252.164 50.571 500C50.571 747.836 252.164 949.429 500 949.429C747.836 949.429 949.429 747.836 949.429 500C949.429 252.164 747.836 50.571 500 50.571V50.571ZM610.519 713.549C590.773 655.015 547.317 603.265 505.306 553.194C477.534 520.116 451.306 488.851 435.758 459.702C416.347 417.355 424.978 362.784 457.384 323.694C489.657 284.739 537.847 269.862 589.664 282.858C655.452 303.176 705.825 340.653 739.34 394.217C769.732 442.776 784.172 501.948 781.149 565.317C774.366 707.067 693.937 802.81 605.045 847.172C624.187 804.254 626.034 759.556 610.519 713.515V713.549ZM699.679 845.358C718.787 828.87 736.385 810.064 752.202 789.041C799.485 726.243 827.627 647.627 831.455 567.735C839.112 407.649 751.899 279.97 603.87 234.534L602.694 234.198C532.105 216.232 463.295 237.657 418.631 291.556C373.933 345.523 362.549 421.855 390.355 481.564L390.926 482.705C408.926 516.758 437 550.205 466.72 585.601C560.482 697.261 615.12 777.993 524.079 878.571L505.608 898.955C503.728 898.955 501.881 899.023 500 899.023C279.97 899.023 100.944 719.996 100.944 499.967C100.944 279.937 279.97 100.911 500 100.911C720.03 100.911 899.056 279.937 899.056 499.967C899.056 647.291 818.795 776.213 699.679 845.358V845.358ZM669.724 716.47L650.649 710.963C643.967 709.015 636.982 712.877 635.067 719.56C633.153 726.243 636.982 733.228 643.664 735.142L662 740.448L660.388 745.385C658.239 752 661.866 759.086 668.482 761.235C669.758 761.638 671.067 761.84 672.343 761.84C677.649 761.84 682.586 758.448 684.332 753.108L686.179 747.399L687.422 747.769C688.597 748.105 689.773 748.273 690.914 748.273C696.388 748.273 701.426 744.679 703.004 739.172C704.918 732.489 701.09 725.504 694.407 723.59L693.937 723.455L720.769 640.474L730.541 643.496C731.784 643.899 733.06 644.067 734.269 644.067C739.642 644.067 744.612 640.608 746.291 635.202C748.34 628.552 744.646 621.5 737.996 619.452L728.493 616.496L754.082 537.31C756.164 530.896 752.773 524.045 746.526 521.694C747.802 515.582 744.444 509.302 738.366 507.22L653.437 477.903L680.067 395.56C681.276 391.799 680.571 387.903 678.556 384.814C679.53 383.672 680.336 382.329 680.873 380.817C683.157 374.235 679.698 367.082 673.116 364.765L579.455 332.123L583.049 322.116C585.399 315.567 582.008 308.347 575.459 305.996C568.911 303.646 561.691 307.038 559.34 313.586L555.646 323.829L531.735 315.5C525.153 313.217 518 316.676 515.717 323.258C513.433 329.84 516.892 336.993 523.474 339.31L547.116 347.538L517.127 430.821L479.549 417.858C472.967 415.575 465.814 419.067 463.53 425.649C461.246 432.232 464.739 439.385 471.321 441.668L508.597 454.53L495.836 489.959C493.485 496.508 496.877 503.728 503.426 506.079C504.836 506.582 506.28 506.817 507.69 506.817C512.862 506.817 517.698 503.627 519.545 498.489L532.44 462.724L621.903 493.62L595.541 575.191L579.523 570.22C572.873 568.138 565.821 571.866 563.773 578.515C561.724 585.164 565.418 592.217 572.067 594.265L587.784 599.134L586.34 603.567C584.19 610.183 587.817 617.269 594.433 619.418C595.709 619.821 597.019 620.023 598.295 620.023C603.601 620.023 608.537 616.631 610.284 611.291L611.795 606.59L696.657 632.952L669.657 716.403L669.724 716.47ZM540.97 439.082L570.959 355.866L656.996 385.855C656.661 386.493 656.358 387.131 656.123 387.836L629.661 469.709L540.97 439.082ZM619.586 582.679L645.713 501.881L729.702 530.896L704.448 609.041L619.586 582.679V582.679Z" fill="url(#paint0_linear_195_398)"/>
<defs>
<linearGradient id="paint0_linear_195_398" x1="817.62" y1="817.653" x2="182.381" y2="182.381" gradientUnits="userSpaceOnUse">
<stop stop-color="#410094"/>
<stop offset="1" stop-color="#9108D2"/>
</linearGradient>
</defs>
</svg>
